<svg width="16" height="20" viewBox="0 0 16 20" fill="none" xmlns="http://www.w3.org/2000/svg">
<path d="M15.8946 14.72L9.25001 0.60936C9.16744 0.435737 9.03947 0.287665 8.87964 0.180812C8.71981 0.0739592 8.53407 0.0123002 8.34207 0.00235994C8.14971 -0.0105311 7.95749 0.029568 7.78633 0.118296C7.61516 0.207025 7.4716 0.340985 7.37126 0.50561L0.16457 12.178C0.0549888 12.3543 -0.00207858 12.5581 5.78615e-05 12.7656C0.00219431 12.9732 0.0634461 13.1758 0.176633 13.3497L3.70001 18.806C3.8333 19.0109 4.02925 19.1671 4.25861 19.2515C4.48797 19.3358 4.73845 19.3438 4.9727 19.2741L15.1976 16.2496C15.3516 16.2046 15.4941 16.1271 15.6155 16.0222C15.7369 15.9174 15.8344 15.7877 15.9014 15.642C15.9674 15.497 16.0011 15.3394 16 15.18C15.9989 15.0207 15.9631 14.8636 15.8951 14.7195L15.8946 14.72ZM14.4069 15.3252L5.73051 17.8908C5.46582 17.9695 5.21176 17.7401 5.26682 17.473L8.3667 2.63023C8.42463 2.35255 8.80813 2.30855 8.92938 2.56555L14.6678 14.7514C14.6931 14.8057 14.7064 14.8648 14.7067 14.9247C14.707 14.9847 14.6943 15.0439 14.6695 15.0985C14.6446 15.153 14.6083 15.2015 14.5629 15.2407C14.5175 15.2798 14.4641 15.3086 14.4065 15.3251H14.4069V15.3252Z" fill="white"/>
</svg>
