<svg width="15" height="15" viewBox="0 0 15 15" fill="none" xmlns="http://www.w3.org/2000/svg">
<path d="M0 0H15V15H0V0ZM8.925 12.3833C9.34167 13.2 10.1833 13.825 11.5 13.825C12.8333 13.825 13.8333 13.1333 13.8333 11.8583C13.8333 10.6833 13.1583 10.1583 11.9583 9.64167L11.6083 9.49167C11 9.23333 10.7417 9.05833 10.7417 8.64167C10.7417 8.3 11 8.03333 11.4167 8.03333C11.8167 8.03333 12.0833 8.20833 12.325 8.64167L13.4167 7.91667C12.9583 7.11667 12.3083 6.80833 11.4167 6.80833C10.1583 6.80833 9.35 7.60833 9.35 8.66667C9.35 9.81667 10.025 10.3583 11.0417 10.7917L11.3917 10.9417C12.0417 11.225 12.425 11.4 12.425 11.8833C12.425 12.2833 12.05 12.575 11.4667 12.575C10.775 12.575 10.375 12.2167 10.075 11.7167L8.925 12.3833ZM8.33333 6.875H4.16667V8.125H5.41667V14.1667H6.875V8.125H8.33333V6.875Z" fill="#2F74FB"/>
</svg>
