<svg width="18" height="18" viewBox="0 0 18 18" fill="none" xmlns="http://www.w3.org/2000/svg">
<path d="M17.6773 2.84119L9.46351 17.5287C9.42494 17.5978 9.3687 17.6554 9.30055 17.6955C9.2324 17.7357 9.15479 17.7571 9.07568 17.7574C8.99656 17.7577 8.91878 17.737 8.85031 17.6973C8.78184 17.6577 8.72514 17.6006 8.68601 17.5318L0.309763 2.84244C0.267651 2.76874 0.247434 2.68455 0.251485 2.59976C0.255536 2.51497 0.283688 2.43309 0.332636 2.36374C0.381584 2.29438 0.449297 2.24043 0.527831 2.20821C0.606365 2.17598 0.69246 2.16683 0.776013 2.18181L8.99851 3.65181C9.0508 3.66123 9.10435 3.66123 9.15664 3.65181L17.2073 2.18431C17.2905 2.16911 17.3763 2.17787 17.4548 2.20959C17.5332 2.24131 17.601 2.29467 17.6503 2.36346C17.6995 2.43225 17.7282 2.51362 17.733 2.5981C17.7378 2.68257 17.7185 2.76666 17.6773 2.84056V2.84119Z" fill="url(#paint0_linear_571_84)"/>
<path d="M12.9148 0.254372L6.83735 1.445C6.7887 1.4545 6.74459 1.47993 6.712 1.51727C6.67941 1.55462 6.66018 1.60176 6.65735 1.65125L6.2836 7.96625C6.28153 8.00089 6.28758 8.03554 6.30126 8.06744C6.31493 8.09933 6.33586 8.1276 6.36238 8.14999C6.38889 8.17238 6.42027 8.18828 6.45401 8.19642C6.48774 8.20455 6.52291 8.20471 6.55672 8.19687L8.2486 7.80625C8.28505 7.79783 8.32303 7.7987 8.35905 7.8088C8.39507 7.8189 8.42797 7.83789 8.45474 7.86403C8.4815 7.89017 8.50126 7.92261 8.5122 7.95839C8.52314 7.99416 8.52491 8.03211 8.51735 8.06875L8.01485 10.5306C8.00709 10.5685 8.00933 10.6078 8.02133 10.6446C8.03333 10.6813 8.05468 10.7144 8.0833 10.7404C8.11192 10.7664 8.14681 10.7846 8.18455 10.793C8.2223 10.8015 8.2616 10.8 8.2986 10.7887L9.3436 10.4712C9.38066 10.4599 9.42003 10.4584 9.45784 10.4669C9.49565 10.4754 9.53059 10.4936 9.55923 10.5197C9.58787 10.5458 9.60921 10.579 9.62115 10.6158C9.6331 10.6527 9.63523 10.6921 9.62735 10.73L8.82797 14.5969C8.77797 14.8387 9.09985 14.9706 9.23422 14.7637L9.3236 14.625L14.2767 4.74062C14.2953 4.70338 14.3031 4.66168 14.2993 4.62023C14.2954 4.57878 14.28 4.53925 14.2548 4.50608C14.2297 4.47292 14.1957 4.44746 14.1569 4.43258C14.118 4.4177 14.0757 4.41399 14.0348 4.42187L12.293 4.7575C12.2555 4.76467 12.2168 4.76211 12.1805 4.75005C12.1443 4.73799 12.1118 4.71684 12.0861 4.68862C12.0604 4.6604 12.0423 4.62606 12.0337 4.58888C12.0251 4.55169 12.0261 4.51291 12.0367 4.47625L13.173 0.534997C13.1837 0.498212 13.1847 0.459289 13.176 0.421977C13.1673 0.384666 13.1492 0.350223 13.1233 0.321965C13.0974 0.293707 13.0647 0.272588 13.0283 0.26064C12.9919 0.248691 12.9531 0.246318 12.9155 0.253747L12.9148 0.254372Z" fill="url(#paint1_linear_571_84)"/>
<defs>
<linearGradient id="paint0_linear_571_84" x1="0.105088" y1="1.65673" x2="10.3271" y2="15.539" gradientUnits="userSpaceOnUse">
<stop stop-color="#41D1FF"/>
<stop offset="1" stop-color="#BD34FE"/>
</linearGradient>
<linearGradient id="paint1_linear_571_84" x1="8.52608" y1="0.57736" x2="10.3752" y2="13.262" gradientUnits="userSpaceOnUse">
<stop stop-color="#FFEA83"/>
<stop offset="0.083" stop-color="#FFDD35"/>
<stop offset="1" stop-color="#FFA800"/>
</linearGradient>
</defs>
</svg>
