<svg width="54" height="54" viewBox="0 0 54 54" fill="none" xmlns="http://www.w3.org/2000/svg">
<path d="M0.75 0.75H53.25V53.25H0.75V0.75Z" fill="#D9F431"/>
<path d="M36.0166 41.7656C36.464 42.6743 37.1589 43.438 38.0215 43.9688C38.884 44.4995 39.8789 44.7758 40.8916 44.7656C42.9354 44.7656 44.2423 43.7438 44.2423 42.3281C44.2423 40.6406 42.8998 40.0369 40.6498 39.0525L39.416 38.5238C35.8535 37.0069 33.491 35.1075 33.491 31.0913C33.491 27.3919 36.3035 24.5738 40.7154 24.5738C42.1436 24.4706 43.5705 24.7903 44.8183 25.4928C46.066 26.1954 47.0792 27.2497 47.7316 28.5244L43.8748 30.99C43.6236 30.358 43.1861 29.8173 42.6206 29.4395C42.055 29.0618 41.3879 28.8649 40.7079 28.875C40.4112 28.8453 40.1116 28.8777 39.8281 28.9702C39.5446 29.0627 39.2835 29.2133 39.0614 29.4122C38.8394 29.6112 38.6612 29.8543 38.5382 30.1259C38.4152 30.3976 38.3502 30.6918 38.3473 30.99C38.3473 32.4694 39.2641 33.0694 41.381 33.99L42.6148 34.5188C46.8073 36.3169 49.1773 38.1488 49.1773 42.2681C49.1773 46.71 45.6879 49.1438 41.0023 49.1438C39.1766 49.2601 37.3562 48.8456 35.7609 47.9503C34.1656 47.055 32.8635 45.7171 32.0116 44.0981L36.0166 41.7656ZM18.5885 42.1931C19.3629 43.5675 20.0679 44.73 21.7629 44.73C23.3829 44.73 24.4066 44.0963 24.4066 41.6306V24.855H29.3398V41.6963C29.3398 46.8038 26.3398 49.1288 21.9729 49.1288C20.4293 49.2131 18.8963 48.8285 17.5754 48.0253C16.2545 47.2221 15.2076 46.0381 14.5723 44.6288L18.5885 42.1931Z" fill="#120F1A"/>
</svg>
