<svg width="52" height="53" viewBox="0 0 52 53" fill="none" xmlns="http://www.w3.org/2000/svg">
<path d="M26 0C25.22 0 24.4111 0.182758 23.7467 0.522167L2.25333 11.7488C0.866667 12.4798 0 13.8374 0 15.2995V37.7005C0 39.1626 0.866667 40.5202 2.25333 41.2512L7.88667 44.1754C10.6311 45.3764 11.5556 45.4025 12.8267 45.4025C16.8711 45.4025 19.2111 43.1833 19.2111 39.3192V17.2054C19.2111 16.8921 18.9222 16.631 18.5756 16.631H15.8889C15.5133 16.631 15.2244 16.8921 15.2244 17.2054V39.3192C15.2244 41.0424 13.26 42.7394 10.1111 41.3034L4.18889 38.2488C4.09162 38.1867 4.01208 38.1046 3.95683 38.0093C3.90158 37.9139 3.8722 37.8081 3.87111 37.7005V15.2995C3.87111 15.0645 3.98667 14.8557 4.18889 14.7512L25.6822 3.55074C25.8556 3.44631 26.1444 3.44631 26.3178 3.55074L47.8111 14.7512C48.0133 14.8557 48.1289 15.0645 48.1289 15.2995V37.7005C48.1289 37.9094 48.0133 38.1182 47.8111 38.2488L26.3178 49.4493C26.1444 49.5537 25.8556 49.5537 25.6533 49.4493L20.2222 46.4729C19.9911 46.3946 19.76 46.3685 19.6156 46.4468C18.0844 47.23 17.7956 47.3867 16.38 47.7783C16.0333 47.8828 15.4844 48.0655 16.5822 48.6138L23.7467 52.4517C24.44 52.8172 25.1911 53 26 53C26.8089 53 27.56 52.8172 28.2533 52.4517L49.7467 41.2512C51.1333 40.5202 52 39.1626 52 37.7005V15.2995C52 13.8374 51.1333 12.4798 49.7467 11.7488L28.2533 0.522167C27.5889 0.182758 26.8089 0 26 0M31.7778 16.0567C25.6533 16.0567 21.9844 18.3803 21.9844 22.2966C21.9844 26.5 25.6244 27.7271 31.5178 28.2493C38.5378 28.8759 39.0867 29.8158 39.0867 31.069C39.0867 33.236 37.1511 34.1498 32.6444 34.1498C26.9244 34.1498 25.7111 32.8704 25.2778 30.3118C25.2474 30.1796 25.1677 30.0608 25.052 29.9752C24.9363 29.8897 24.7917 29.8426 24.6422 29.8419H21.8689C21.5222 29.8419 21.2622 30.0768 21.2622 30.4163C21.2622 33.6537 23.2267 37.5699 32.6444 37.5699C39.4333 37.5699 43.3333 35.1419 43.3333 30.9123C43.3333 26.7089 40.2133 25.6123 33.5978 24.803C26.9244 24.0197 26.26 23.602 26.26 22.1921C26.26 21.0172 26.8378 19.4507 31.7778 19.4507C36.1111 19.4507 37.8156 20.3123 38.48 23.0015C38.5378 23.2626 38.7978 23.4453 39.0867 23.4453H41.8889C42.0333 23.4453 42.2067 23.3931 42.3222 23.2626C42.4378 23.1581 42.5244 23.0015 42.4667 22.8448C42.0622 18.1975 38.6533 16.0567 31.7778 16.0567Z" fill="#68A063"/>
</svg>
