<svg width="47" height="44" viewBox="0 0 47 44" fill="none" xmlns="http://www.w3.org/2000/svg">
<path d="M23.9997 17.5493C26.2313 17.5493 28.0513 19.4228 28.0513 21.7647C28.0513 23.9951 26.2313 25.8909 23.9997 25.8909C21.768 25.8909 19.948 23.9951 19.948 21.7647C19.948 19.4228 21.768 17.5493 23.9997 17.5493ZM13.968 39.6078C15.333 40.4554 18.323 39.1618 21.768 35.8162C20.6413 34.5002 19.5363 33.0728 18.4963 31.5784C16.7503 31.4064 15.0145 31.1384 13.2963 30.7755C12.1913 35.5485 12.603 38.8272 13.968 39.6078ZM15.5063 26.8054L14.878 25.6679C14.6397 26.3147 14.4013 26.9615 14.2497 27.586C14.8347 27.7198 15.4847 27.8314 16.1563 27.9429L15.5063 26.8054ZM29.6763 25.1103L31.4313 21.7647L29.6763 18.4191C29.0263 17.237 28.333 16.1887 27.7047 15.1404C26.5347 15.0735 25.2997 15.0735 23.9997 15.0735C22.6997 15.0735 21.4647 15.0735 20.2947 15.1404C19.6663 16.1887 18.973 17.237 18.323 18.4191L16.568 21.7647L18.323 25.1103C18.973 26.2924 19.6663 27.3407 20.2947 28.389C21.4647 28.4559 22.6997 28.4559 23.9997 28.4559C25.2997 28.4559 26.5347 28.4559 27.7047 28.389C28.333 27.3407 29.0263 26.2924 29.6763 25.1103ZM23.9997 10.1221C23.588 10.6127 23.1547 11.1257 22.7213 11.7279H25.278C24.8447 11.1257 24.4113 10.6127 23.9997 10.1221ZM23.9997 33.4073C24.4113 32.9167 24.8447 32.4037 25.278 31.8015H22.7213C23.1547 32.4037 23.588 32.9167 23.9997 33.4073ZM34.0097 3.92156C32.6663 3.07401 29.6763 4.36764 26.2313 7.71323C27.358 9.02916 28.463 10.4566 29.503 11.951C31.2797 12.1294 33.0347 12.397 34.703 12.7539C35.808 7.98087 35.3963 4.7022 34.0097 3.92156ZM32.493 16.724L33.1213 17.8615C33.3597 17.2147 33.598 16.5679 33.7497 15.9434C33.1647 15.8096 32.5147 15.698 31.843 15.5865L32.493 16.724ZM35.6347 0.999745C38.8197 2.87327 39.1663 7.80244 37.823 13.5569C43.3263 15.2296 47.2913 17.9953 47.2913 21.7647C47.2913 25.5341 43.3263 28.2997 37.823 29.9725C39.1663 35.727 38.8197 40.6561 35.6347 42.5296C32.4713 44.4032 28.1597 42.262 23.9997 38.1804C19.8397 42.262 15.528 44.4032 12.343 42.5296C9.17967 40.6561 8.83301 35.727 10.1763 29.9725C4.67301 28.2997 0.708008 25.5341 0.708008 21.7647C0.708008 17.9953 4.67301 15.2296 10.1763 13.5569C8.83301 7.80244 9.17967 2.87327 12.343 0.999745C15.528 -0.873784 19.8397 1.26739 23.9997 5.34901C28.1597 1.26739 32.4713 -0.873784 35.6347 0.999745ZM35.0063 21.7647C35.743 23.4375 36.393 25.1103 36.9347 26.8054C41.4847 25.4002 44.0413 23.3929 44.0413 21.7647C44.0413 20.1365 41.4847 18.1292 36.9347 16.724C36.393 18.4191 35.743 20.0919 35.0063 21.7647ZM12.993 21.7647C12.2563 20.0919 11.6063 18.4191 11.0647 16.724C6.51467 18.1292 3.95801 20.1365 3.95801 21.7647C3.95801 23.3929 6.51467 25.4002 11.0647 26.8054C11.6063 25.1103 12.2563 23.4375 12.993 21.7647ZM32.493 26.8054L31.843 27.9429C32.5147 27.8314 33.1647 27.7198 33.7497 27.586C33.598 26.9615 33.3597 26.3147 33.1213 25.6679L32.493 26.8054ZM26.2313 35.8162C29.6763 39.1618 32.6663 40.4554 34.0097 39.6078C35.3963 38.8272 35.808 35.5485 34.703 30.7755C33.0347 31.1323 31.2797 31.4 29.503 31.5784C28.463 33.0728 27.358 34.5002 26.2313 35.8162ZM15.5063 16.724L16.1563 15.5865C15.4847 15.698 14.8347 15.8096 14.2497 15.9434C14.4013 16.5679 14.6397 17.2147 14.878 17.8615L15.5063 16.724ZM21.768 7.71323C18.323 4.36764 15.333 3.07401 13.968 3.92156C12.603 4.7022 12.1913 7.98087 13.2963 12.7539C15.0145 12.391 16.7503 12.123 18.4963 11.951C19.5363 10.4566 20.6413 9.02916 21.768 7.71323Z" fill="#61DBFB"/>
</svg>
