<svg width="16" height="18" viewBox="0 0 16 18" fill="none" xmlns="http://www.w3.org/2000/svg">
<path d="M7.96703 0.25H8.00766C8.21586 0.349164 8.41864 0.45932 8.61516 0.58L15.4014 4.48375C15.4889 4.53046 15.5604 4.60239 15.6065 4.69021C15.6527 4.77803 15.6713 4.87768 15.6602 4.97625C15.6552 7.71938 15.6602 10.4619 15.657 13.2037C15.6276 13.3346 15.5476 13.4485 15.4345 13.5206C13.0291 14.9056 10.6235 16.2898 8.21766 17.6731C8.15936 17.7176 8.08908 17.7435 8.01589 17.7476C7.9427 17.7518 7.86995 17.7339 7.80703 17.6962C5.3987 16.3154 2.99266 14.9321 0.588906 13.5463C0.510785 13.5093 0.445353 13.4501 0.400861 13.376C0.356369 13.3019 0.334811 13.2163 0.338906 13.13V4.90312C0.333012 4.81719 0.352876 4.73144 0.395961 4.65685C0.439046 4.58226 0.503394 4.52221 0.580781 4.48438C2.83995 3.18521 5.09911 1.88521 7.35828 0.584375C7.55953 0.469375 7.75703 0.3475 7.96703 0.25Z" fill="#019639"/>
<path d="M3.47974 5.58623V12.3731C3.47686 12.4984 3.49897 12.623 3.54479 12.7397C3.59061 12.8563 3.65923 12.9627 3.74662 13.0525C3.91413 13.218 4.13331 13.321 4.36761 13.3444C4.60191 13.3679 4.83715 13.3103 5.03412 13.1812C5.16596 13.0916 5.27389 12.9712 5.34852 12.8303C5.42314 12.6895 5.46218 12.5325 5.46224 12.3731C5.46224 10.7356 5.45912 9.09811 5.46224 7.46061C6.95516 9.24811 8.4512 11.0331 9.95037 12.8156C10.1587 13.0266 10.4166 13.1819 10.7005 13.2673C10.9844 13.3527 11.2852 13.3655 11.5754 13.3044C11.7802 13.264 11.9667 13.159 12.1075 13.0047C12.2482 12.8505 12.3358 12.6552 12.3572 12.4475C12.3606 10.1387 12.3606 7.83019 12.3572 5.52186C12.3357 5.27546 12.2226 5.04607 12.0403 4.87896C11.8579 4.71184 11.6196 4.61914 11.3722 4.61914C11.1249 4.61914 10.8865 4.71184 10.7042 4.87896C10.5219 5.04607 10.4088 5.27546 10.3872 5.52186C10.3872 7.18561 10.3772 8.84748 10.3872 10.5106C8.92099 8.78186 7.47287 7.03811 6.01224 5.30311C5.81968 5.05619 5.56474 4.86509 5.27372 4.74952C4.9827 4.63394 4.66612 4.59807 4.35662 4.64561C4.12216 4.67171 3.9048 4.78093 3.74394 4.95349C3.58308 5.12605 3.48935 5.35052 3.47974 5.58623Z" fill="white"/>
</svg>
